<svg width="19" height="22" viewBox="0 0 19 22" fill="none" xmlns="http://www.w3.org/2000/svg">
<path fill-rule="evenodd" clip-rule="evenodd" d="M9.82878 0.958496C6.26348 0.958496 3.37325 3.79029 3.37325 7.2835V9.99418C3.37325 10.9717 3.04965 11.9229 2.45103 12.705L1.08402 14.4907C0.561004 15.174 0.71386 16.1097 1.51422 16.4481C2.9545 17.0571 5.60774 17.8252 9.82878 17.8252C14.0498 17.8252 16.7031 17.0571 18.1433 16.4481C18.9437 16.1097 19.0965 15.174 18.5735 14.4907L17.2065 12.705C16.6079 11.9229 16.2843 10.9717 16.2843 9.99418V7.2835C16.2843 3.79029 13.3941 0.958496 9.82878 0.958496ZM9.82877 21.5147C8.48828 21.5147 7.37674 20.5539 7.17253 19.2968C7.97862 19.3661 8.8626 19.4064 9.82877 19.4064C10.7948 19.4064 11.6789 19.3661 12.485 19.2968C12.2808 20.5539 11.1693 21.5147 9.82877 21.5147Z" fill="#96A7AF"/>
</svg>
