<svg width="19" height="20" viewBox="0 0 19 20" fill="none" xmlns="http://www.w3.org/2000/svg">
<path d="M18.2907 16.1956V10.9156C18.2907 9.18856 18.2907 8.32507 17.934 7.5618C17.5772 6.79853 16.9056 6.22482 15.5622 5.07742L14.5461 4.20951C11.9758 2.01417 10.6907 0.916504 9.14533 0.916504C7.59997 0.916504 6.31485 2.01417 3.7446 4.20951L2.72845 5.07742C1.38509 6.22482 0.713417 6.79853 0.356709 7.5618C0 8.32507 0 9.18856 0 10.9156V16.1956C0 17.1055 0 17.5604 0.154698 17.9194C0.360966 18.3978 0.756603 18.778 1.25457 18.9762C1.62805 19.1248 2.10152 19.1248 3.04844 19.1248H3.38716C4.01715 19.1248 4.33215 19.1248 4.59059 19.0583C5.29192 18.8777 5.83972 18.3513 6.02764 17.6774C6.09689 17.4291 6.09689 17.1264 6.09689 16.521V14.2428C6.09689 12.6249 7.46168 11.3135 9.14533 11.3135C10.829 11.3135 12.1938 12.6249 12.1938 14.2428V16.521C12.1938 17.1264 12.1938 17.4291 12.263 17.6774C12.451 18.3513 12.9988 18.8777 13.7001 19.0583C13.9585 19.1248 14.2735 19.1248 14.9035 19.1248H15.2422C16.1892 19.1248 16.6626 19.1248 17.0361 18.9762C17.534 18.778 17.9297 18.3978 18.136 17.9194C18.2907 17.5604 18.2907 17.1055 18.2907 16.1956Z" fill="#96A7AF"/>
</svg>
