<svg width="17" height="18" viewBox="0 0 17 18" fill="none" xmlns="http://www.w3.org/2000/svg">
<path d="M6.81235 14.2313C8.21971 14.2313 9.53395 13.7641 10.6024 12.9852L14.6219 17.0871C14.8082 17.2775 15.054 17.3727 15.3084 17.3727C15.8594 17.3727 16.2578 16.9399 16.2578 16.3861C16.2578 16.1265 16.1733 15.8842 15.9861 15.6939L11.9935 11.6093C12.8325 10.4843 13.3327 9.09102 13.3327 7.5766C13.3327 3.91607 10.3989 0.921875 6.81235 0.921875C3.21811 0.921875 0.292969 3.91607 0.292969 7.5766C0.292969 11.2371 3.21811 14.2313 6.81235 14.2313ZM6.81235 12.7948C4.00627 12.7948 1.70033 10.4323 1.70033 7.5766C1.70033 4.72087 4.00627 2.35839 6.81235 2.35839C9.61075 2.35839 11.9253 4.72087 11.9253 7.5766C11.9253 10.4323 9.61075 12.7948 6.81235 12.7948Z" fill="#FDFDFD"/>
</svg>
