<svg width="19" height="20" viewBox="0 0 19 20" fill="none" xmlns="http://www.w3.org/2000/svg">
<path fill-rule="evenodd" clip-rule="evenodd" d="M1.19049 2.12954C0 3.34258 0 5.29492 0 9.19963V17.1156C0 17.9259 0 18.3311 0.105131 18.5479C0.330756 19.0132 0.85961 19.2364 1.34206 19.07C1.56685 18.9924 1.84802 18.706 2.41034 18.133H2.41035L2.41037 18.1329C2.86636 17.6683 3.09435 17.436 3.34559 17.2483C3.87208 16.8552 4.48376 16.5971 5.12888 16.4957C5.43672 16.4474 5.75915 16.4474 6.40401 16.4474H10.6696C14.0101 16.4474 15.6804 16.4474 16.8047 15.5072C17.0104 15.3352 17.1991 15.1429 17.368 14.9332C18.2907 13.7877 18.2907 12.0858 18.2907 8.68194C18.2907 5.27811 18.2907 3.5762 17.368 2.43069C17.1991 2.22098 17.0104 2.0287 16.8047 1.8566C15.6804 0.916504 14.0101 0.916504 10.6696 0.916504H8.12918C4.29705 0.916504 2.38099 0.916504 1.19049 2.12954ZM4.57267 10.235C5.41447 10.235 6.09689 9.53965 6.09689 8.68194C6.09689 7.82422 5.41447 7.12885 4.57267 7.12885C3.73086 7.12885 3.04845 7.82422 3.04845 8.68194C3.04845 9.53965 3.73086 10.235 4.57267 10.235ZM10.6696 8.68194C10.6696 9.53965 9.98711 10.235 9.14533 10.235C8.30356 10.235 7.62111 9.53965 7.62111 8.68194C7.62111 7.82422 8.30356 7.12885 9.14533 7.12885C9.98711 7.12885 10.6696 7.82422 10.6696 8.68194ZM13.718 10.235C14.5598 10.235 15.2422 9.53965 15.2422 8.68194C15.2422 7.82422 14.5598 7.12885 13.718 7.12885C12.8762 7.12885 12.1938 7.82422 12.1938 8.68194C12.1938 9.53965 12.8762 10.235 13.718 10.235Z" fill="#3E73C1"/>
</svg>
