<svg width="19" height="18" viewBox="0 0 19 18" fill="none" xmlns="http://www.w3.org/2000/svg">
<path d="M17.6765 6H15.7989L11.6911 0.225193C11.5071 -0.0334869 11.1714 -0.075527 10.9413 0.131513C10.7112 0.338513 10.6739 0.716073 10.858 0.974833L14.4325 6H3.77747L7.35204 0.974833C7.53609 0.716073 7.49879 0.338473 7.26874 0.131513C7.03863 -0.075527 6.70292 -0.0335269 6.5189 0.225193L2.41108 6H0.533496C0.238864 6 0 6.26864 0 6.6V9C0 9.33136 0.238864 9.6 0.533496 9.6H1.19809L3.22153 17.5648C3.28694 17.8224 3.49628 18 3.73447 18H14.4755C14.7137 18 14.9231 17.8224 14.9885 17.5648L17.0119 9.6H17.6765C17.9711 9.6 18.21 9.33136 18.21 9V6.6C18.21 6.26864 17.9711 6 17.6765 6ZM17.143 8.4C15.3154 8.4 2.79836 8.4 1.06699 8.4V7.2H17.143V8.4Z" fill="#96A7AF"/>
</svg>
